<svg id="visual" viewBox="0 0 30 200" width="30" height="200" xmlns="http://www.w3.org/2000/svg" xmlns:xlink="http://www.w3.org/1999/xlink" version="1.1"><rect x="0" y="0" width="30" height="200" fill="#0A369D"></rect><path d="M0 103L3 103L3 84L6 84L6 64L9 64L9 97L12 97L12 113L15 113L15 77L18 77L18 91L21 91L21 110L24 110L24 110L27 110L27 63L30 63L30 98L30 0L30 0L27 0L27 0L24 0L24 0L21 0L21 0L18 0L18 0L15 0L15 0L12 0L12 0L9 0L9 0L6 0L6 0L3 0L3 0L0 0Z" fill="#4472ca"></path><path d="M0 54L3 54L3 63L6 63L6 97L9 97L9 54L12 54L12 89L15 89L15 61L18 61L18 56L21 56L21 63L24 63L24 56L27 56L27 54L30 54L30 55L30 0L30 0L27 0L27 0L24 0L24 0L21 0L21 0L18 0L18 0L15 0L15 0L12 0L12 0L9 0L9 0L6 0L6 0L3 0L3 0L0 0Z" fill="#507bd0"></path><path d="M0 72L3 72L3 53L6 53L6 74L9 74L9 55L12 55L12 66L15 66L15 60L18 60L18 72L21 72L21 48L24 48L24 65L27 65L27 70L30 70L30 70L30 0L30 0L27 0L27 0L24 0L24 0L21 0L21 0L18 0L18 0L15 0L15 0L12 0L12 0L9 0L9 0L6 0L6 0L3 0L3 0L0 0Z" fill="#5b85d6"></path><path d="M0 65L3 65L3 63L6 63L6 39L9 39L9 72L12 72L12 39L15 39L15 59L18 59L18 46L21 46L21 67L24 67L24 62L27 62L27 58L30 58L30 60L30 0L30 0L27 0L27 0L24 0L24 0L21 0L21 0L18 0L18 0L15 0L15 0L12 0L12 0L9 0L9 0L6 0L6 0L3 0L3 0L0 0Z" fill="#668edc"></path><path d="M0 59L3 59L3 58L6 58L6 49L9 49L9 36L12 36L12 28L15 28L15 36L18 36L18 57L21 57L21 33L24 33L24 55L27 55L27 55L30 55L30 36L30 0L30 0L27 0L27 0L24 0L24 0L21 0L21 0L18 0L18 0L15 0L15 0L12 0L12 0L9 0L9 0L6 0L6 0L3 0L3 0L0 0Z" fill="#7198e2"></path><path d="M0 30L3 30L3 36L6 36L6 40L9 40L9 43L12 43L12 28L15 28L15 20L18 20L18 26L21 26L21 41L24 41L24 41L27 41L27 21L30 21L30 46L30 0L30 0L27 0L27 0L24 0L24 0L21 0L21 0L18 0L18 0L15 0L15 0L12 0L12 0L9 0L9 0L6 0L6 0L3 0L3 0L0 0Z" fill="#7ca1e8"></path><path d="M0 25L3 25L3 17L6 17L6 13L9 13L9 29L12 29L12 11L15 11L15 32L18 32L18 35L21 35L21 11L24 11L24 10L27 10L27 22L30 22L30 11L30 0L30 0L27 0L27 0L24 0L24 0L21 0L21 0L18 0L18 0L15 0L15 0L12 0L12 0L9 0L9 0L6 0L6 0L3 0L3 0L0 0Z" fill="#87aaee"></path><path d="M0 21L3 21L3 8L6 8L6 16L9 16L9 5L12 5L12 22L15 22L15 2L18 2L18 18L21 18L21 3L24 3L24 8L27 8L27 7L30 7L30 7L30 0L30 0L27 0L27 0L24 0L24 0L21 0L21 0L18 0L18 0L15 0L15 0L12 0L12 0L9 0L9 0L6 0L6 0L3 0L3 0L0 0Z" fill="#92b4f4"></path></svg>